<svg width="60" height="60" class="icon" style="" viewBox="0 0 1024 1024" version="1.1"
     xmlns="http://www.w3.org/2000/svg"
     xmlns:xlink="http://www.w3.org/1999/xlink">
    <defs>
        <style type="text/css"/>
    </defs>
    <path d="M691.358 490.104 550.564 490.104 550.564 350.859c0-17.74-14.545-32.13-32.485-32.13-17.947 0-32.487 14.39-32.487 32.13l0 139.245L344.804 490.104c-17.947 0-32.485 14.395-32.485 32.135 0 17.745 14.54 32.13 32.485 32.13l140.785 0 0 139.25c0 17.74 14.54 32.13 32.49 32.13 17.94 0 32.48-14.39 32.48-32.13l0-139.25 140.785 0c17.945 0 32.495-14.385 32.495-32.13C723.838 504.499 709.298 490.104 691.358 490.104z"
          fill="#ffffff"/>
</svg>
