<svg class="icon" width="25px" height="25px" viewBox="0 0 1024 1024" version="1.1"
     xmlns="http://www.w3.org/2000/svg">
    <path d="M853.131913 187.493232l-92.27459 0 0 151.35108L259.066849 338.844312 259.066849 187.493232l-90.588181 0c-18.927071 0-34.271548 15.343453-34.271548 34.271548l0 703.332676c0 18.926048 15.343453 34.270525 34.271548 34.270525l684.654268 0c18.927071 0 34.270525-15.343453 34.270525-34.270525L887.40346 221.764779C887.402437 202.837708 872.058984 187.493232 853.131913 187.493232zM777.05626 480.93754 480.076428 844.547909c1.354857 4.50971-5.348821 5.185093-9.857509 1.502213L254.141676 669.111271c-4.50971-3.683902-5.186116-10.386558-1.50119-14.896268l36.046984-44.135196c3.682879-4.50971 10.385535-5.185093 14.895245-1.503237l163.966399 135.699612 254.013251-311.004243c3.683902-6.287193 10.385535-6.961552 14.896268-3.279696l41.885969 34.21015C782.85022 467.886293 785.445324 471.332788 777.05626 480.93754zM639.360178 143.387711l0-27.813462c0-28.27395-22.918989-51.193962-51.192939-51.193962L433.193655 64.380286c-28.272927 0-51.193962 22.920012-51.193962 51.193962l0 27.813462-60.188824 0 0 138.028657 376.574634 0L698.385503 143.387711 639.360178 143.387711zM510.93218 230.596935c-31.185256 0-56.466036-25.281803-56.466036-56.467059s25.281803-56.467059 56.466036-56.467059c31.18628 0 56.467059 25.281803 56.467059 56.467059C567.399239 209.884195 542.117436 230.596935 510.93218 230.596935z"
          fill="#9E9E9E"/>
</svg>
