<svg class="icon" width="25px" height="25px" viewBox="0 0 1024 1024" version="1.1"
     xmlns="http://www.w3.org/2000/svg">
    <path d="M512 0C229.232 0 0 229.232 0 512 0 794.768 229.232 1024 512 1024 794.768 1024 1024 794.768 1024 512 1024 229.232 794.768 0 512 0L512 0ZM832.448 560 511.568 560C501.92 560 493.408 555.536 487.616 548.624 482.944 543.136 480.016 536.16 480.016 528.448L480.016 528.16C480.016 528.096 480 528.048 480 528 480 527.952 480.016 527.904 480.016 527.84L480 207.536C480.016 190.096 494.336 176 512.016 176 529.68 176 544.032 190.112 544.032 207.536L544.016 496 832.432 496C849.888 496 864.032 510.304 864 528 864 545.68 849.888 560 832.448 560L832.448 560Z"
          fill="#9E9E9E"/>
</svg>
